<svg id="Icon_Perm_Identity_Outlined" data-name="Icon / Perm Identity / Outlined" xmlns="http://www.w3.org/2000/svg" width="28" height="28" viewBox="0 0 28 28">
  <rect id="Box" width="28" height="28" fill="none"/>
  <path id="Path_2103" data-name="Path 2103" d="M974-65.625A2.625,2.625,0,0,1,976.625-63,2.625,2.625,0,0,1,974-60.375,2.625,2.625,0,0,1,971.375-63,2.625,2.625,0,0,1,974-65.625Zm0,11.25c3.713,0,7.625,1.825,7.625,2.625v1.375h-15.25V-51.75C966.375-52.55,970.288-54.375,974-54.375ZM974-68a5,5,0,0,0-5,5,5,5,0,0,0,5,5,5,5,0,0,0,5-5A5,5,0,0,0,974-68Zm0,11.25c-3.338,0-10,1.675-10,5V-48h20v-3.75C984-55.075,977.338-56.75,974-56.75Z" transform="translate(-960 72)" fill="#170000"/>
</svg>
