<svg id="Icon_add_shopping_cart_Outlined" data-name="Icon / add shopping cart / Outlined" xmlns="http://www.w3.org/2000/svg" width="28" height="28" viewBox="0 0 28 28">
  <path id="Path_2074" data-name="Path 2074" d="M12.984-13.476h2.4v-3.571h3.6v-2.381h-3.6V-23h-2.4v3.571h-3.6v2.381h3.6ZM8.19-2.762A2.386,2.386,0,0,0,5.806-.381,2.386,2.386,0,0,0,8.19,2a2.4,2.4,0,0,0,2.4-2.381A2.4,2.4,0,0,0,8.19-2.762Zm11.984,0A2.386,2.386,0,0,0,17.79-.381,2.386,2.386,0,0,0,20.175,2a2.4,2.4,0,0,0,2.4-2.381A2.4,2.4,0,0,0,20.175-2.762ZM9.509-8.714h8.928a2.388,2.388,0,0,0,2.1-1.226l4.626-8.345-2.1-1.143L18.437-11.1H10.024L4.919-21.81H1v2.381H3.4l4.314,9.036-1.618,2.9a2.385,2.385,0,0,0,2.1,3.536H22.571V-6.333H8.19Z" transform="translate(0 24)" fill="#170000"/>
  <rect id="Box" width="28" height="28" fill="none"/>
</svg>
