<svg id="Icon_Favorite_Outlined" data-name="Icon / Favorite / Outlined" xmlns="http://www.w3.org/2000/svg" width="28" height="28" viewBox="0 0 28 28">
  <rect id="Box" width="28" height="28" fill="none"/>
  <path id="Path_2085" data-name="Path 2085" d="M157.12,21.31l-.12.122-.12-.122C151.12,16.07,147.4,12.536,147.4,9a4.133,4.133,0,0,1,4.2-4.265,4.873,4.873,0,0,1,4.32,2.925h2.28a4.616,4.616,0,0,1,4.32-2.925A4.133,4.133,0,0,1,166.72,9C166.6,12.536,162.88,16.07,157.12,21.31ZM162.4,2.3A7.167,7.167,0,0,0,157,4.859,7.167,7.167,0,0,0,151.6,2.3,6.557,6.557,0,0,0,145,9c0,4.631,4.08,8.408,10.32,14.014L157,24.6l1.68-1.584C164.92,17.289,169,13.511,169,9A6.633,6.633,0,0,0,162.4,2.3Z" transform="translate(-143 1)" fill="#170000"/>
</svg>
