<svg id="Icon-fb" xmlns="http://www.w3.org/2000/svg" width="80" height="80" viewBox="0 0 80 80">
  <path id="Path_484" data-name="Path 484" d="M70,2.5A7.509,7.509,0,0,1,77.5,10V70A7.509,7.509,0,0,1,70,77.5H10A7.509,7.509,0,0,1,2.5,70V10A7.509,7.509,0,0,1,10,2.5H70M70,0H10A10.029,10.029,0,0,0,0,10V70A10.029,10.029,0,0,0,10,80H70A10.029,10.029,0,0,0,80,70V10A10.029,10.029,0,0,0,70,0Z" fill="#fff"/>
  <path id="Path_485" data-name="Path 485" d="M16.627,51.9h9.892V29.318h6.6l.874-7.781H26.519l.01-3.9c0-2.029.2-3.116,3.29-3.116h4.125V6.739h-6.6c-7.927,0-10.716,3.777-10.716,10.124v4.672H11.685v7.783h4.942V51.9Z" transform="translate(17.162 10.68)" fill="#fff"/>
</svg>
