<svg id="Outline_Color_copy_2" xmlns="http://www.w3.org/2000/svg" width="80" height="80" viewBox="0 0 80 80">
  <path id="Path_481" data-name="Path 481" d="M70,2.5A7.509,7.509,0,0,1,77.5,10V70A7.509,7.509,0,0,1,70,77.5H10A7.509,7.509,0,0,1,2.5,70V10A7.509,7.509,0,0,1,10,2.5H70M70,0H10A10.029,10.029,0,0,0,0,10V70A10.029,10.029,0,0,0,10,80H70A10.029,10.029,0,0,0,80,70V10A10.029,10.029,0,0,0,70,0Z" fill="#fff"/>
  <path id="Path_482" data-name="Path 482" d="M35.945,8.822a9.485,9.485,0,0,0-6.557,9.54l.1,1.623-1.681-.2A27.6,27.6,0,0,1,11.8,12.1L9.579,9.948l-.571,1.591a9.389,9.389,0,0,0,2.085,9.805c1.345,1.391,1.041,1.591-1.276.761a4.1,4.1,0,0,0-1.58-.364c-.235.234.571,3.246,1.211,4.44a10.758,10.758,0,0,0,4.608,4.24l1.648.761-1.949.032c-1.883,0-1.949.032-1.747.731.672,2.152,3.329,4.44,6.289,5.432l2.085.694-1.815,1.061a19.228,19.228,0,0,1-9.014,2.45,10.041,10.041,0,0,0-2.758.266c0,.33,4.1,2.184,6.491,2.916a29.042,29.042,0,0,0,22.062-2.453,29.031,29.031,0,0,0,11.2-12.854,33.4,33.4,0,0,0,2.288-9.934c0-1.524.1-1.724,1.984-3.543a21.634,21.634,0,0,0,2.353-2.551c.336-.63.3-.63-1.413-.066-2.859.995-3.263.862-1.848-.628A9.62,9.62,0,0,0,52.2,9.192c0-.1-.5.066-1.077.364a18.551,18.551,0,0,1-2.96,1.125l-1.825.561L44.691,10.15a13.8,13.8,0,0,0-2.859-1.458,11.76,11.76,0,0,0-5.887.131Z" transform="translate(9.939 12.857)" fill="#fff"/>
</svg>
